<svg width="10" height="10" viewBox="0 0 10 10" fill="none" xmlns="http://www.w3.org/2000/svg">
<path fill-rule="evenodd" clip-rule="evenodd" d="M9.53082 0.469182C8.90524 -0.156393 7.89099 -0.156393 7.26541 0.469182L5 2.73459L2.73459 0.469182C2.10902 -0.156394 1.09476 -0.156394 0.469182 0.469182C-0.156393 1.09476 -0.156393 2.10901 0.469182 2.73459L2.73459 5L0.469182 7.26541C-0.156394 7.89098 -0.156394 8.90524 0.469182 9.53082C1.09476 10.1564 2.10902 10.1564 2.73459 9.53082L5 7.26541L7.26541 9.53082C7.89099 10.1564 8.90524 10.1564 9.53082 9.53082C10.1564 8.90524 10.1564 7.89098 9.53082 7.26541L7.26541 5L9.53082 2.73459C10.1564 2.10902 10.1564 1.09476 9.53082 0.469182Z" fill="white"/>
</svg>
