<svg width="1119" height="827" viewBox="0 0 1119 827" fill="none" xmlns="http://www.w3.org/2000/svg">
<g clip-path="url(#clip0_201_3)">
<path d="M741.34 795.87C914.807 795.87 1055.43 781.691 1055.43 764.2C1055.43 746.709 914.807 732.53 741.34 732.53C567.873 732.53 427.25 746.709 427.25 764.2C427.25 781.691 567.873 795.87 741.34 795.87Z" fill="#DBC9AF"/>
<path d="M649.58 116.22C577.91 114.14 509.64 94.88 444.46 73.8C379.28 52.72 314.7 29.39 244.74 18.22C199.74 11.04 148.29 10.02 112.03 30.11C77.15 49.43 65.87 82.8 59.81 113.75C55.25 137.04 52.57 161.56 65.06 183.36C73.74 198.5 89.14 211.22 99.79 225.72C136.86 276.18 110.66 338.39 70.49 387.65C51.65 410.76 29.8 432.81 15.26 457.41C0.720014 482.01 -5.98999 510.22 6.72001 535.29C19.33 560.16 49.37 578.84 81.92 591.98C148.02 618.67 225.92 626.31 301.92 630.63C470.01 640.22 639.01 636.06 807.64 631.91C870.03 630.38 932.64 628.82 994.07 620.79C1028.15 616.33 1063.34 609.25 1088.07 592.16C1119.49 570.46 1127.27 533.73 1106.22 506.52C1070.92 460.89 973.3 449.52 948.62 400.59C935.04 373.64 948.99 343.59 968.73 318.59C1011.07 264.97 1082.05 217.92 1085.79 156.59C1088.36 114.49 1054.24 72.33 1001.48 52.41C946.18 31.53 869.48 34.16 828.69 68.72C786.69 104.36 712.87 118.05 649.58 116.22Z" fill="#DBC9AF"/>
<path opacity="0.5" d="M172.31 626.22C164.39 622.69 171.09 584.34 188.31 525.22C199.31 487.29 214.69 440.81 233.31 389.51C234.65 385.83 236.01 382.14 237.37 378.41C238.903 374.23 240.457 370.017 242.03 365.77L242.17 365.42C242.39 364.81 242.62 364.21 242.84 363.61C248.8 347.61 255.03 331.24 261.53 314.5C261.65 314.16 261.78 313.83 261.91 313.5L262.24 312.65C263.8 308.65 265.38 304.65 266.97 300.58C267.14 300.16 267.3 299.72 267.47 299.3C267.7 298.71 267.93 298.14 268.15 297.56C268.23 297.38 268.29 297.19 268.37 297.03C268.5 296.68 268.64 296.34 268.77 296.03C270.37 292.03 271.96 287.98 273.55 284.03C276.15 277.563 278.73 271.16 281.29 264.82C281.737 263.707 282.187 262.607 282.64 261.52C283.927 258.327 285.217 255.157 286.51 252.01C287.01 250.81 287.51 249.6 287.99 248.41C288.37 247.5 288.74 246.58 289.11 245.68C293.17 235.86 297.203 226.23 301.21 216.79C301.22 216.757 301.22 216.723 301.21 216.69C316.46 180.76 331.21 147.77 344.91 118.93C344.99 118.78 345.05 118.62 345.13 118.47L346.58 115.41C381.74 41.7 409.4 -3.79002 418.75 0.409984C428.37 4.68998 416.39 60.55 390.14 142.67C389.8 143.76 389.45 144.83 389.09 145.92C389.035 146.134 388.969 146.344 388.89 146.55C387.557 150.803 386.153 155.137 384.68 159.55C384.6 159.81 384.51 160.07 384.42 160.33C381.087 170.53 377.54 181.063 373.78 191.93C373.27 193.39 372.78 194.88 372.24 196.36C366.44 213.15 360.24 230.63 353.59 248.65C353.19 249.76 352.78 250.86 352.37 251.98C345.72 270.03 338.71 288.61 331.37 307.57C330.9 308.77 330.43 309.98 329.97 311.19C329.87 311.45 329.77 311.7 329.66 311.96C327.827 316.66 325.983 321.38 324.13 326.12C323.6 327.44 323.13 328.76 322.57 330.07C321.25 333.42 319.93 336.77 318.57 340.07C318.46 340.37 318.34 340.67 318.22 340.96C318.1 341.25 318.03 341.43 317.93 341.66C317.71 342.24 317.48 342.81 317.25 343.38C316.63 344.93 316.02 346.48 315.4 348.01C314.33 350.69 313.26 353.34 312.19 356.01L311.86 356.81C311.863 356.847 311.863 356.883 311.86 356.92C307.513 367.66 303.18 378.217 298.86 388.59C297.407 392.09 295.957 395.567 294.51 399.02C293.44 401.57 292.38 404.11 291.31 406.62C283.37 425.39 275.57 443.36 267.97 460.39C222.01 563.22 183.65 631.28 172.31 626.22Z" fill="#085D2D"/>
<path opacity="0.5" d="M191.08 554.83C186.2 552.73 192.26 525.45 206 483.07C214.8 455.89 226.77 422.49 241 385.55L244.11 377.55C245.277 374.543 246.463 371.51 247.67 368.45C247.708 368.365 247.741 368.278 247.77 368.19L248.29 366.89C252.83 355.337 257.567 343.537 262.5 331.49C262.59 331.24 262.69 331.01 262.79 330.77C262.89 330.53 262.95 330.36 263.04 330.16C264.22 327.26 265.41 324.37 266.61 321.45L267 320.52L267.51 319.27C267.57 319.14 267.62 319 267.67 318.88C267.72 318.76 267.88 318.39 267.98 318.15C269.193 315.23 270.397 312.333 271.59 309.46C273.55 304.793 275.493 300.17 277.42 295.59L278.42 293.21C279.42 290.9 280.36 288.62 281.33 286.34L282.44 283.74C282.73 283.08 283 282.42 283.28 281.74C286.327 274.653 289.35 267.693 292.35 260.86C292.356 260.837 292.356 260.813 292.35 260.79C303.75 234.79 314.71 210.93 324.77 190.02C324.83 189.91 324.88 189.79 324.94 189.68L326 187.46C351.86 133.99 371.62 100.72 377.38 103.21C383.31 105.77 373.05 145.6 352.48 204.56L351.66 206.9C351.61 207.05 351.56 207.2 351.5 207.35C350.433 210.403 349.337 213.507 348.21 216.66L348.01 217.22C345.39 224.553 342.633 232.123 339.74 239.93C339.35 240.99 338.96 242.06 338.55 243.12C334.07 255.19 329.28 267.78 324.22 280.76L323.29 283.15C318.21 296.15 312.877 309.503 307.29 323.21C306.94 324.08 306.59 324.95 306.23 325.82C306.15 326.01 306.07 326.19 306 326.38L301.81 336.59L300.63 339.44C299.63 341.86 298.63 344.28 297.63 346.67C297.55 346.89 297.46 347.1 297.37 347.31C297.28 347.52 297.23 347.65 297.15 347.82L296.64 349.05C296.17 350.17 295.71 351.29 295.24 352.4L292.89 358.22L292.64 358.8V358.88C289.36 366.64 286.107 374.263 282.88 381.75C281.793 384.283 280.703 386.797 279.61 389.29C278.81 391.143 278.01 392.977 277.21 394.79C271.27 408.35 265.46 421.36 259.82 433.68C225.67 508.22 198.07 557.85 191.08 554.83Z" fill="#085D2D"/>
<path d="M512.8 352.48C512.8 349.69 510.07 351.13 509.69 351.25C508.593 350.35 507.399 349.575 506.13 348.94C500.04 345.77 490.84 343.84 483.51 342.71C483.484 342.701 483.456 342.701 483.43 342.71C476.97 341.71 471.99 341.37 471.99 341.37L468.18 341.42H466.76C467.259 340.679 467.991 340.127 468.84 339.85C469.9 339.72 464.36 339.31 461.73 339.13H461.62L460.4 339.05C454.62 340.41 443.79 332.98 443.79 332.98L442.53 326.64C446.81 322.01 446.19 310.44 446.19 310.44C446.19 310.44 446.55 306.56 450.19 301.22C453.83 295.88 449.58 292.5 449.58 292.5L455.87 285.79C455.6 284.633 455.561 283.433 455.757 282.261C455.953 281.089 456.378 279.967 457.01 278.96C457.394 278.391 457.87 277.891 458.42 277.48V277.43L458.52 277.34C462.63 274.19 466.1 263.25 466.1 263.25C466.1 263.25 465.3 261.3 469.8 256.01V255.95C470.4 255.25 471.1 254.5 471.91 253.66C471.91 253.59 472.03 253.53 472.09 253.46C479.31 246.22 476.47 242.22 476.47 242.22L467.7 231.56C469.77 228.1 453.15 203.27 453.15 203.27C453.15 203.27 451.03 198.16 452.23 193.27C452.566 192.118 452.601 190.899 452.33 189.73C452.172 189.07 451.848 188.461 451.39 187.96C451.108 187.659 450.768 187.417 450.39 187.25L449.79 187.2L450.5 186.68C450.79 186.49 451.07 186.28 451.36 186.08C451.98 186.32 452.6 186.53 453.23 186.72C459.334 188.692 465.835 189.097 472.137 187.898C478.438 186.7 484.337 183.935 489.29 179.86C489.54 179.67 489.78 179.46 490.01 179.25C490.24 179.04 490.64 178.71 490.95 178.42C491.09 178.29 491.23 178.17 491.35 178.04C491.47 177.91 491.82 177.58 492.05 177.34C492.12 177.56 492.19 177.77 492.27 177.99C492.583 178.876 492.961 179.739 493.4 180.57C493.437 180.647 493.481 180.72 493.53 180.79C493.527 180.82 493.527 180.85 493.53 180.88C493.6 181.03 493.69 181.17 493.77 181.31C494.34 182.263 495.032 183.137 495.83 183.91C496.025 184.103 496.232 184.283 496.45 184.45C496.761 184.716 497.096 184.954 497.45 185.16C497.502 185.206 497.559 185.246 497.62 185.28C497.68 185.326 497.743 185.366 497.81 185.4C498.07 184.94 498.32 184.47 498.56 184C500.684 179.857 501.92 175.317 502.19 170.67C502.202 170.104 502.249 169.54 502.33 168.98C502.384 168.552 502.509 168.137 502.7 167.75C503.07 166.99 503.668 166.364 504.41 165.96C505.609 165.35 506.87 164.867 508.17 164.52L508.48 164.41L508.86 164.28L509.6 163.99L509.72 163.93C509.94 163.84 510.14 163.73 510.35 163.63C510.413 163.584 510.48 163.544 510.55 163.51C510.789 163.376 511.017 163.223 511.23 163.05L511.33 162.97C511.524 162.823 511.705 162.659 511.87 162.48C511.95 162.4 512 162.3 512.08 162.22C512.191 162.099 512.291 161.968 512.38 161.83L512.62 161.48C512.672 161.369 512.732 161.262 512.8 161.16C513.565 159.61 513.91 157.886 513.8 156.16C513.66 153.68 512.93 151.28 512.96 148.79C513.05 142.84 517.34 137.16 516.96 131.25C516.62 126.13 512.85 122.15 508.96 118.97C505.07 115.79 500.75 112.82 498.62 108.27C497.03 104.86 496.81 100.89 495.38 97.4101C492.38 90.1201 483.58 86.0101 475.63 88.1801C470.87 89.4901 466.73 92.6401 462.1 94.3901C459.04 95.5401 455.83 96.0601 452.78 97.2301C449.178 98.622 445.949 100.834 443.35 103.69C442.89 104.19 442.46 104.69 442.04 105.25L441.65 105.78C441.36 106.18 441.07 106.58 440.81 107C440.69 107.18 440.58 107.35 440.47 107.54C440.106 108.119 439.772 108.716 439.47 109.33C439.18 109.9 438.93 110.48 438.68 111.07C437.29 114.43 436.43 118.01 434.76 121.21C434.39 121.939 433.969 122.64 433.5 123.31C432.85 124.24 432.1 125.11 431.36 125.99C431.16 126.23 430.96 126.47 430.76 126.69C430.679 126.807 430.588 126.917 430.49 127.02C430.35 127.21 430.19 127.39 430.04 127.58C429.89 127.77 429.86 127.81 429.78 127.92C429.7 128.03 429.48 128.33 429.35 128.54C429.22 128.75 429.2 128.73 429.13 128.84C428.93 129.15 428.75 129.47 428.57 129.79V129.86C428.01 130.937 427.702 132.127 427.67 133.34C427.658 133.94 427.746 134.539 427.93 135.11C427.978 135.257 428.035 135.4 428.1 135.54C428.251 135.862 428.45 136.159 428.69 136.42C428.57 136.75 428.43 137.09 428.32 137.42C428.06 138.18 427.82 138.96 427.6 139.73C427.46 140.26 427.35 140.73 427.23 141.28C426.764 143.305 426.466 145.366 426.34 147.44L425.7 147.77C424.574 148.329 423.415 148.82 422.23 149.24H422.11C421.11 149.46 414.21 150.9 411.79 150.48L403.16 148.97C403.16 148.97 401.16 148.14 398.97 147.09C397.317 146.368 395.775 145.415 394.39 144.26C392.74 142.48 381.33 135.14 378.93 135.15C377.951 134.997 377.057 134.501 376.41 133.75C375.685 132.863 375.017 131.931 374.41 130.96C374.41 130.96 374.18 130.84 373.82 130.62C373.37 129.99 373.09 129.52 373.09 129.52C373.09 129.52 369.7 127.66 366.25 125.52L364.78 128.52C364.7 128.67 364.63 128.83 364.55 128.99C350.63 157.69 335.41 190.46 319.55 226.05C319.556 226.083 319.556 226.117 319.55 226.15C315.37 235.483 311.153 245.02 306.9 254.76L305.73 257.46L304.17 261.02L300.1 270.42L298.68 273.69C295.98 279.95 293.26 286.283 290.52 292.69C288.84 296.617 287.153 300.58 285.46 304.58C285.33 304.91 285.18 305.25 285.04 305.58C284.96 305.75 284.89 305.93 284.81 306.11C284.58 306.68 284.33 307.25 284.09 307.83C283.91 308.24 283.73 308.68 283.55 309.09C281.87 313.09 280.2 317.09 278.55 321.01L277.79 321.4L278.2 321.85C278.06 322.18 277.92 322.5 277.79 322.85C270.89 339.33 264.223 355.48 257.79 371.3L257.07 373.08L256.92 373.43C255.227 377.61 253.56 381.76 251.92 385.88C250.453 389.56 248.997 393.207 247.55 396.82C227.44 447.34 210.43 492.95 197.78 530.03C197.18 530.44 196.54 530.91 195.89 531.44C196.54 530.95 197.17 530.44 197.75 530.09C198.25 529.748 198.771 529.438 199.31 529.16C200.487 528.535 201.568 527.743 202.52 526.81C202.95 526.41 203.37 526 203.78 525.57C206.126 522.941 208.253 520.125 210.14 517.15C210.444 516.789 210.779 516.454 211.14 516.15L211.67 515.67L211.75 515.6C212.04 515.35 212.35 515.07 212.7 514.78L212.76 514.73L213.28 514.3L213.34 514.25L213.9 513.78C215.61 512.38 217.7 510.73 219.69 509.17L220.41 508.62L222.84 506.74L224.04 505.83L226.69 503.83C226.714 503.789 226.741 503.748 226.77 503.71C227.01 503.4 227.56 502.71 228.33 501.76C228.344 501.738 228.365 501.72 228.39 501.71C228.481 501.585 228.577 501.465 228.68 501.35C229.74 500.11 231.12 498.56 232.68 497.02C232.87 496.84 233.06 496.64 233.27 496.46L233.84 495.91L234.77 495.08C235.685 494.267 236.646 493.509 237.65 492.81C238.935 491.883 240.163 490.882 241.33 489.81L241.58 489.59C241.75 489.42 241.94 489.24 242.14 489.07C242.284 488.948 242.421 488.818 242.55 488.68L242.98 488.28L243.69 487.61L244.14 487.18L245.2 486.18L246.39 485L246.57 484.82C247.18 484.2 247.8 483.57 248.43 482.95L249.16 482.21C249.46 481.9 249.76 481.58 250.06 481.28C250.57 480.77 251.06 480.28 251.58 479.73L252.69 478.57C253.05 478.18 253.41 477.82 253.75 477.46C254.3 476.89 254.82 476.35 255.31 475.82L255.42 475.7L256.69 474.36C256.69 474.36 256.69 474.36 256.75 474.29C257.06 473.98 257.33 473.69 257.59 473.4L257.84 473.13C258.09 472.89 258.31 472.64 258.5 472.44C259.25 471.65 259.68 471.18 259.68 471.18L268.68 460.93L277.85 450.22L278.26 449.76C278.26 449.76 280.6 446.24 282.99 443.33L283.31 442.94C284.126 441.916 285.04 440.975 286.04 440.13C286.845 439.455 287.585 438.705 288.25 437.89C288.3 437.89 288.34 437.78 288.4 437.72C291.1 434.56 294.59 429.65 295.71 428.04L296.08 427.52C297.01 426.747 297.867 425.89 298.64 424.96C299.579 423.872 300.335 422.64 300.88 421.31C301.408 420.116 302.079 418.991 302.88 417.96C302.884 417.944 302.884 417.926 302.88 417.91L303.04 417.69L303.61 416.95C304.316 417.086 305.031 417.173 305.75 417.21C309.036 417.335 312.321 416.916 315.47 415.97C315.562 415.946 315.652 415.916 315.74 415.88C316.56 415.69 317.18 415.51 317.51 415.41L317.8 415.32L324.01 406.22L324.16 406.01C324.16 406.01 327.44 402.9 330.58 399.57C330.92 399.21 331.25 398.85 331.58 398.5C333.82 396.08 335.8 393.7 336.19 392.44C337.19 389.29 342.7 382.89 342.7 382.89C342.7 382.89 352.15 370.81 355.84 366.25C355.99 366.06 356.14 365.87 356.27 365.72L356.77 365.11C356.883 365.189 356.99 365.276 357.09 365.37C357.368 365.645 357.619 365.947 357.84 366.27C357.86 366.312 357.883 366.352 357.91 366.39L358.22 365.95C358.43 365.67 358.72 365.24 359.11 364.71C359.411 364.993 359.676 365.312 359.9 365.66L359.99 365.79C359.99 365.79 380.89 336.93 384.15 328.79C384.902 327.092 385.845 325.485 386.96 324C391.23 318.09 398.43 311.27 401.81 308.18L402.81 307.29C403.33 306.81 403.64 306.55 403.64 306.55L404 307.33C404 307.39 404 307.45 404.07 307.52C404.93 309.47 406.67 313.79 405.74 314.98C404.55 316.54 401.36 332.29 401.36 332.29C401.36 332.29 397.01 339.21 399.83 349.84C402.65 360.47 414.43 364.18 417.06 363.96C418.75 363.81 433.53 369.96 444 374.47L446.58 375.58L449.18 376.69L453.23 378.46L453.46 378.56C453.79 378.72 454.13 378.87 454.46 379L454.67 378.72L454.77 378.57L455.77 379.04L454.77 378.47C455.18 377.89 455.89 376.84 456.77 375.41C456.814 375.311 456.867 375.218 456.93 375.13L457.21 374.66L457.68 373.86C457.73 373.75 457.79 373.66 457.84 373.57L458.32 372.71C458.35 372.669 458.377 372.626 458.4 372.58C459.06 371.38 459.75 370.04 460.4 368.58C460.5 368.39 460.6 368.18 460.69 367.98L463.27 367.76L465.05 367.61L466.05 367.53L467.35 367.4L467.96 367.52L492.6 369.3L494.4 369.44C496.747 369.646 499.11 369.36 501.34 368.6C503.569 367.84 505.616 366.623 507.348 365.026C509.08 363.43 510.46 361.489 511.398 359.329C512.337 357.168 512.815 354.836 512.8 352.48Z" fill="url(#paint0_linear_201_3)"/>
<path d="M452.47 379.6C452.47 379.6 471.21 354.2 458.4 340.14L428.01 349.37L429.61 360.52C429.61 360.52 442.78 375.73 452.47 379.6Z" fill="#65617D"/>
<path opacity="0.1" d="M428.01 349.37L429.61 360.52C429.61 360.52 438.91 371.22 447.61 376.96C449.15 377.997 450.788 378.881 452.5 379.6C452.5 379.6 452.61 379.47 452.8 379.19C452.822 379.158 452.842 379.125 452.86 379.09C455.126 375.805 457.106 372.333 458.78 368.71C459.4 367.34 460.01 365.87 460.57 364.38C462.57 358.69 463.81 352.25 462.07 346.55C461.443 344.439 460.395 342.476 458.99 340.78C458.87 340.64 458.75 340.49 458.61 340.35C458.556 340.275 458.496 340.205 458.43 340.14L457.76 340.34L447.48 343.46L428.01 349.37Z" fill="black"/>
<path d="M301.14 271.43L298.59 273.7L300.01 270.43L301.14 271.43Z" fill="#65617D"/>
<path opacity="0.1" d="M301.14 271.43L298.59 273.7L300.01 270.43L301.14 271.43Z" fill="black"/>
<path d="M461.7 342.53C461.7 342.53 448.48 356.94 456.5 366.07C456.5 366.07 460.36 367.19 466.05 368.24C479.16 370.64 501.93 372.64 509.23 359.5C519.67 340.68 469.85 342.38 469.85 342.38L466.08 342.45L461.7 342.53Z" fill="#FBBEBE"/>
<path opacity="0.1" d="M461.7 342.53C461.7 342.53 448.48 356.94 456.5 366.07C456.5 366.07 460.36 367.19 466.05 368.24L467.73 368.09C465.539 367.311 463.546 366.062 461.89 364.43C459.77 362.24 458.27 358.95 460.01 354.33C460.98 351.689 462.112 349.111 463.4 346.61C464.142 345.132 465.041 343.737 466.08 342.45L461.7 342.53Z" fill="black"/>
<path d="M439.37 370.39L443.81 370.01L458.75 368.71L466.37 368.04C464.182 367.262 462.191 366.013 460.54 364.38C458.42 362.18 456.91 358.9 458.65 354.28C459.624 351.638 460.756 349.056 462.04 346.55C464.18 342.55 465.83 341.03 466.74 340.91C467.65 340.79 462.31 340.39 459.74 340.22H459.64C458.91 340.16 458.43 340.14 458.43 340.14L457.73 340.34L447.77 343.22L447.45 343.45C445.01 345.22 430.31 356.71 439.37 370.39Z" fill="#E7EFFD"/>
<path d="M324.26 375.91L308.88 411.06C308.88 411.06 306.21 413.86 303.81 416.81C303.772 416.868 303.729 416.921 303.68 416.97L303.1 417.72C303.037 417.785 302.981 417.855 302.93 417.93C302.934 417.946 302.934 417.964 302.93 417.98C301.899 419.216 301.038 420.585 300.37 422.05C299.942 423.099 299.374 424.084 298.68 424.98C297.813 426.105 296.831 427.138 295.75 428.06C295.704 428.108 295.654 428.151 295.6 428.19C295.6 428.19 291.6 433.92 288.44 437.74C288.38 437.8 288.34 437.87 288.29 437.91C287.484 438.917 286.591 439.851 285.62 440.7C284.794 441.381 284.034 442.137 283.35 442.96L283.03 443.35C280.52 446.35 277.89 450.24 277.89 450.24L268.73 460.67L259.4 471.22L258.51 472.22L257.85 472.91L257.6 473.18L256.76 474.07C256.76 474.07 256.71 474.07 256.7 474.14L255.43 475.48L255.32 475.6C254.82 476.11 254.32 476.66 253.76 477.24C253.42 477.6 253.06 477.96 252.7 478.35L251.59 479.51C251.09 480.02 250.59 480.51 250.07 481.06C249.77 481.36 249.47 481.68 249.17 481.99L248.44 482.73C247.81 483.35 247.19 483.98 246.58 484.6L246.4 484.78L245.21 485.96L244.15 486.96L243.7 487.39L242.99 488.06L242.56 488.46C242.431 488.598 242.294 488.728 242.15 488.85C241.96 489.04 241.77 489.21 241.59 489.37L241.34 489.59C240.145 490.726 238.875 491.782 237.54 492.75C236.245 493.667 235.012 494.669 233.85 495.75L233.28 496.3C233.07 496.48 232.88 496.68 232.69 496.86C231.14 498.4 229.76 499.95 228.69 501.19C228.587 501.305 228.491 501.425 228.4 501.55C228.375 501.56 228.354 501.578 228.34 501.6C227.57 502.53 227.02 503.24 226.78 503.55L226.65 503.71L224 505.71L222.8 506.62L220.37 508.5L219.65 509.05C217.65 510.61 215.57 512.26 213.86 513.66L213.3 514.13L213.24 514.18L212.72 514.61L212.66 514.66C212.31 514.95 212 515.23 211.71 515.48L211.63 515.55L211.1 516.03C210.783 516.307 210.492 516.611 210.23 516.94C208.32 519.947 206.159 522.787 203.77 525.43C203.36 525.86 202.94 526.27 202.51 526.67C201.614 527.533 200.605 528.269 199.51 528.86C198.918 529.154 198.347 529.488 197.8 529.86C210.45 492.78 227.46 447.17 247.57 396.65C249.01 393.03 250.467 389.383 251.94 385.71C253.6 381.59 255.267 377.44 256.94 373.26L257.09 372.91L257.81 371.13C264.21 355.33 270.877 339.18 277.81 322.68C277.94 322.35 278.08 322.03 278.22 321.68L277.81 321.23L278.57 320.84C280.23 316.84 281.9 312.92 283.57 308.92C283.75 308.51 283.93 308.07 284.11 307.66C284.35 307.08 284.6 306.51 284.83 305.94C284.91 305.76 284.98 305.58 285.06 305.41C285.2 305.07 285.35 304.73 285.48 304.41C287.18 300.41 288.867 296.447 290.54 292.52L308.16 312.22L308.9 313.03L321.2 326.58L321.95 327.39L325.78 331.61L327.85 333.89L328.85 334.98L341.17 348.55L341.33 348.73L341.91 349.36L324.26 375.91Z" fill="#3F3D56"/>
<path d="M412.39 154.71L409.93 189.22C409.93 189.22 439.47 203.22 440.34 198.08C440.69 196.08 444.54 192.78 449.14 189.5C456.39 184.31 465.5 179.14 465.5 179.14C465.5 179.14 435.79 134.35 432.26 143.71C430.97 147.13 427.98 149.52 424.7 151.17C420.813 153.002 416.657 154.197 412.39 154.71Z" fill="#FBBEBE"/>
<path opacity="0.1" d="M432.26 143.71C430.97 147.13 431.26 147.92 427.99 149.57C427.24 159.71 427.26 171.72 434.72 179.77C438.704 184.092 443.641 187.424 449.14 189.5C456.39 184.31 465.5 179.14 465.5 179.14C465.5 179.14 435.79 134.35 432.26 143.71Z" fill="black"/>
<path d="M437.49 125.36C433.822 128.754 430.859 132.837 428.769 137.377C426.679 141.916 425.504 146.822 425.31 151.816C425.117 156.809 425.909 161.792 427.641 166.479C429.373 171.167 432.011 175.467 435.405 179.135C438.799 182.803 442.882 185.766 447.421 187.856C451.961 189.946 456.867 191.121 461.861 191.315C466.854 191.508 471.837 190.716 476.524 188.984C481.212 187.252 485.512 184.614 489.18 181.22L489.57 180.84C496.923 173.934 501.232 164.389 501.548 154.306C501.864 144.224 498.161 134.428 491.255 127.075C484.349 119.722 474.804 115.413 464.721 115.097C454.639 114.781 444.843 118.484 437.49 125.39V125.36Z" fill="#FBBEBE"/>
<path opacity="0.1" d="M326.24 366.61C324.98 368.26 322.89 367.9 319.53 363.51C317.969 361.596 316.267 359.802 314.44 358.14C314.1 357.82 313.74 357.49 313.39 357.14C309.66 353.71 304.88 349.62 299.73 344.98L299.4 344.69C297.11 342.62 294.72 340.43 292.34 338.16L290.92 336.8C287.66 333.65 284.39 330.31 281.27 326.8L281.13 326.66C279.98 325.38 278.84 324.08 277.71 322.82C277.84 322.49 277.98 322.17 278.12 321.82L277.71 321.37L278.47 320.98C280.13 316.98 281.8 313.06 283.47 309.06C283.65 308.65 283.83 308.21 284.01 307.8C284.25 307.22 284.5 306.65 284.73 306.08C284.81 305.9 284.88 305.72 284.96 305.55L286.13 307.01C288.03 309.39 289.97 311.78 291.93 314.15L292.1 314.36C293.21 315.69 294.31 317.02 295.42 318.36C295.47 318.36 295.51 318.47 295.56 318.51C296.79 319.98 298.05 321.42 299.32 322.8L300.06 323.59C301.42 325.06 302.78 326.44 304.14 327.78C307.34 330.92 310.5 333.78 313.41 336.18C313.69 336.42 313.96 336.65 314.25 336.88C316.82 339.02 319.19 340.88 321.25 342.34L322.18 343.04L323.34 343.87C326.04 345.81 327.69 346.87 327.69 346.87C327.69 346.87 327.84 348.24 327.96 350.26C328.03 351.43 328.1 352.82 328.13 354.26C328.17 358.94 327.88 364.46 326.24 366.61Z" fill="black"/>
<path d="M326.24 366.61C324.95 367.38 323.02 366.52 320.24 362.87C318.615 360.88 316.84 359.018 314.93 357.3L314.83 357.21L313.88 356.31C310.28 353.01 305.75 349.11 300.88 344.71C300.766 344.621 300.659 344.524 300.56 344.42C297.87 342.02 295.09 339.42 292.29 336.76C291.82 336.32 291.35 335.86 290.87 335.39C287.87 332.47 284.87 329.39 281.99 326.18L281.86 326.03L278.14 321.87L277.73 321.42L278.49 321.03C280.15 317.03 281.82 313.11 283.49 309.11C283.67 308.7 283.85 308.26 284.03 307.85C284.27 307.27 284.52 306.7 284.75 306.13C284.83 305.95 284.9 305.77 284.98 305.6C285.12 305.26 285.27 304.92 285.4 304.6C287.47 307.19 289.6 309.84 291.75 312.46C291.775 312.479 291.795 312.503 291.81 312.53L292.81 313.77C293.96 315.16 295.11 316.53 296.26 317.91C297.26 319.14 298.34 320.33 299.39 321.49C299.57 321.7 299.76 321.9 299.95 322.1C300.14 322.3 300.44 322.64 300.68 322.9C304.867 327.351 309.318 331.545 314.01 335.46C314.28 335.7 314.56 335.93 314.84 336.16C317.32 338.22 319.61 340.01 321.57 341.48C321.94 341.74 322.29 342.01 322.63 342.26L323.79 343.09C326.62 345.09 328.35 346.22 328.35 346.22C328.35 346.22 328.59 348.52 328.72 351.59C328.77 352.86 328.8 354.25 328.79 355.67C328.76 360.43 328.22 365.43 326.24 366.61Z" fill="#5F5D7E"/>
<path opacity="0.1" d="M444.3 224.92L341.17 348.53L332.26 359.22L330.95 360.79C330.332 359.042 329.611 357.332 328.79 355.67C328.57 355.23 328.34 354.76 328.08 354.28C326.542 351.195 324.462 348.41 321.94 346.06C321.57 345.74 321.19 345.44 320.81 345.17L320.18 344.75C319.573 344.37 318.93 344.052 318.26 343.8C315.974 342.752 313.894 341.303 312.12 339.52L311.32 338.78C306.957 334.359 302.945 329.604 299.32 324.56C299.09 324.25 298.87 323.95 298.67 323.66C297.49 322.05 296.79 321.03 296.79 321.03C296.79 321.03 296.03 320.11 294.79 318.74C293.79 317.58 292.5 316.1 291.11 314.6C288.96 312.126 286.579 309.863 284 307.84C284.24 307.26 284.49 306.69 284.72 306.12C284.8 305.94 284.87 305.76 284.95 305.59C285.09 305.25 285.24 304.91 285.37 304.59C287.07 300.59 288.757 296.627 290.43 292.7C293.17 286.3 295.89 279.967 298.59 273.7L300.01 270.43L304.08 261.03L305.64 257.47L306.81 254.77C311.07 245.05 315.287 235.513 319.46 226.16L384.73 168.16L392.59 164.42L400.16 160.84L405.58 162.4L406.39 162.62L411.65 164.14H411.72L412.99 164.51L415.6 165.26L416.89 182.55V182.7V183.18L419.27 186.6L420.75 188.75L421.39 189L424.1 190.05L424.92 190.36L425.22 190.48L427.59 191.4L434.32 194.01L435.93 199.01L436.93 202.23L437.48 203.96L438.01 205.22L444.3 224.92Z" fill="black"/>
<path d="M445.7 223.62L341.33 348.71L332.33 359.48L332.24 359.22C331.283 356.579 330.099 354.026 328.7 351.59C328.45 351.15 328.17 350.7 327.89 350.26C326.561 348.065 324.89 346.097 322.94 344.43C322.56 344.13 322.18 343.85 321.79 343.6C321.5 343.403 321.2 343.223 320.89 343.06C320.492 342.85 320.082 342.666 319.66 342.51C317.289 341.419 315.137 339.904 313.31 338.04L312.5 337.29C309.514 334.306 306.715 331.14 304.12 327.81C302.73 326.04 301.5 324.41 300.51 323.07L299.86 322.17C299.68 321.93 299.52 321.7 299.37 321.48C298.59 320.4 298.14 319.74 298.14 319.74C298.14 319.74 295.14 316.08 291.77 312.52C291.755 312.493 291.735 312.469 291.71 312.45C289.972 310.524 288.101 308.723 286.11 307.06C285.669 306.713 285.201 306.402 284.71 306.13C284.79 305.95 284.86 305.77 284.94 305.6C285.08 305.26 285.23 304.92 285.36 304.6C287.06 300.6 288.747 296.637 290.42 292.71C293.16 286.31 295.88 279.977 298.58 273.71L300 270.44L304.07 261.04L305.63 257.48L306.8 254.78C311.06 245.06 315.277 235.523 319.45 226.17C319.456 226.137 319.456 226.103 319.45 226.07L386.1 166.83L392.83 163.63L401.53 159.5L406.74 161L407.55 161.23L411.8 162.46L412.8 162.74L413.98 163.08L416.98 163.95L418.32 181.87L419 182.87L419.11 183.03L419.25 183.24L421.32 186.24L422.16 187.46L425.5 188.76L429.66 190.37L435.74 192.73L437.82 199.24L438.19 200.4L438.73 202.08L438.99 202.9L439.16 203.41L445.7 223.62Z" fill="#E7EFFD"/>
<path opacity="0.1" d="M430.15 198.59C430.15 198.59 417.01 199.22 415.59 200.75C414.17 202.28 410.76 205.88 410.76 205.88L405.6 219.36C405.6 219.36 396.14 232.91 393.68 235.19C391.22 237.47 373.68 261.33 373.68 261.33L345.4 296.66L308.12 342.72L291.35 346.49L290.73 333.12L358.2 252.12L371.37 236.01C371.37 236.01 396.51 208.59 399.37 206.01C402.23 203.43 410.77 197.86 410.77 197.86C410.77 197.86 416.39 189.86 412.17 181.96C407.95 174.06 412.95 182.11 412.95 182.11L419.25 183.03L420.89 187.39C420.89 187.39 431.69 193.68 430.15 198.59Z" fill="black"/>
<path d="M431.5 198.64C431.5 198.64 418.36 199.27 416.94 200.8C415.52 202.33 412.11 205.93 412.11 205.93L407.01 219.41C407.01 219.41 397.5 232.96 395.01 235.22C392.52 237.48 375.01 261.37 375.01 261.37L346.74 296.69L309.46 342.76L292.69 346.52L292.09 333.22L359.55 252.22L372.73 236.1C372.73 236.1 397.87 208.68 400.68 206.1C403.49 203.52 412.08 197.95 412.08 197.95C412.08 197.95 417.7 189.95 413.48 182.06C409.26 174.17 414.27 182.2 414.27 182.2L420.57 183.12L422.21 187.48C422.21 187.48 433.01 193.73 431.5 198.64Z" fill="#085D2D"/>
<path opacity="0.1" d="M447.62 191.35C447.62 191.35 447.78 192.94 443.31 197.52C438.84 202.1 431.31 215.15 431.31 215.15C431.31 215.15 428.46 195.15 421.88 189.91L447.62 191.35Z" fill="black"/>
<path d="M449.01 190.05C449.01 190.05 449.18 191.64 444.71 196.21C440.24 200.78 432.71 213.85 432.71 213.85C432.71 213.85 429.86 193.85 423.27 188.6L449.01 190.05Z" fill="#E7EFFD"/>
<path opacity="0.1" d="M420.53 154.57L421.45 189.44C421.45 189.44 396.85 182.16 392.55 182.22C388.25 182.28 411.63 156.72 411.63 156.72L420.53 154.57Z" fill="black"/>
<path d="M421.29 152.56L422.21 187.43C422.21 187.43 397.61 180.15 393.31 180.21C389.01 180.27 412.38 154.71 412.38 154.71L421.29 152.56Z" fill="#E7EFFD"/>
<path opacity="0.1" d="M447.01 190.64C447.01 190.64 450.01 191.78 448.82 196.64C447.63 201.5 449.69 206.51 449.69 206.51C449.69 206.51 466.05 231 463.99 234.43L472.63 244.94C472.63 244.94 475.42 248.89 468.36 256.08C461.3 263.27 462.36 265.8 462.36 265.8C462.36 265.8 458.89 276.64 454.81 279.8C450.73 282.96 452.12 288.18 452.12 288.18L400.43 308.81C400.43 308.81 384.2 322.81 381.01 330.82C377.82 338.83 357.01 367.45 357.01 367.45C357.01 367.45 355.52 364.9 354.22 366.32C352.92 367.74 339.84 384.43 339.84 384.43C339.84 384.43 334.4 390.78 333.37 393.9C332.34 397.02 321.43 407.36 321.43 407.36L315.2 416.61C315.2 416.61 301.1 421.39 296.2 413.28C291.3 405.17 306.46 368.22 306.46 368.22L327.92 333.76L350.65 301.39L368.25 281.82L408.25 239.59L432.6 209.43C432.6 209.43 443.45 190.85 447.01 190.64Z" fill="black"/>
<path d="M449.01 190.05C449.01 190.05 452.01 191.18 450.82 196C449.63 200.82 451.68 205.87 451.68 205.87C451.68 205.87 468.05 230.36 465.99 233.79L474.63 244.3C474.63 244.3 477.42 248.25 470.36 255.44C463.3 262.63 464.36 265.16 464.36 265.16C464.36 265.16 460.89 276 456.81 279.16C452.73 282.32 454.12 287.54 454.12 287.54L402.41 308.13C402.41 308.13 386.26 322.22 383.01 330.22C379.76 338.22 359.01 366.84 359.01 366.84C359.01 366.84 357.52 364.29 356.22 365.71C354.92 367.13 341.84 383.82 341.84 383.82C341.84 383.82 336.4 390.17 335.37 393.3C334.34 396.43 323.43 406.75 323.43 406.75L317.19 416.01C317.19 416.01 303.1 420.78 298.19 412.67C293.28 404.56 308.52 367.61 308.52 367.61L330.01 333.16L352.74 300.79L370.31 281.22L410.31 238.99L434.66 208.83C434.66 208.83 445.51 190.22 449.01 190.05Z" fill="#65617D"/>
<path opacity="0.1" d="M428.01 349.37L429.61 360.52C429.61 360.52 438.91 371.22 447.61 376.96L452.8 379.19L453.8 379.64L452.8 379.09C448.01 376.24 445.19 373.16 443.8 370.01C438.13 357.39 455 343.73 458.95 340.78C459.34 340.48 459.59 340.29 459.7 340.22H459.75H459.6C459.27 340.289 458.936 340.332 458.6 340.35C458.317 340.365 458.033 340.365 457.75 340.35L447.77 343.22L447.45 343.45L428.01 349.37Z" fill="black"/>
<path d="M452.01 283.35L454.12 287.5L447.87 294.16C447.87 294.16 452.03 297.48 448.44 302.77C444.85 308.06 444.44 311.89 444.44 311.89C444.44 311.89 445.02 323.34 440.77 327.89L442.01 334.22C442.01 334.22 452.7 341.53 458.4 340.17C458.4 340.17 424.24 363.96 452.47 379.63C452.47 379.63 418.11 364.63 415.47 364.87C412.83 365.11 401.23 361.49 398.47 350.98C395.71 340.47 400.04 333.63 400.04 333.63C400.04 333.63 403.25 318.03 404.44 316.49C405.63 314.95 402.38 308.16 402.38 308.16L417.44 275.49L452.01 283.35Z" fill="#65617D"/>
<path opacity="0.1" d="M421.28 152.57V152.63L419.82 154.72L414.01 163.07L413.01 164.49L411.57 166.58L409.01 170.3L398.22 180.98L396.42 182.76L379.23 199.76L341.29 237.34L313.65 253.34C313.65 253.34 309.7 255.34 305.65 257.44L306.82 254.74C311.08 245.02 315.297 235.483 319.47 226.13C319.476 226.097 319.476 226.063 319.47 226.03C335.36 190.44 350.58 157.67 364.47 128.97C364.704 129.074 364.928 129.198 365.14 129.34C368.27 131.43 371.97 133.53 373.38 134.34L373.97 134.67C374.577 135.642 375.245 136.574 375.97 137.46C377.12 138.85 378.55 140.21 379.73 140.21C382.11 140.21 393.37 147.4 395 149.21C395.745 149.897 396.583 150.476 397.49 150.93C400.12 152.4 403.64 153.85 403.64 153.85L411.86 155.24L412.18 155.3H412.28C414.49 155.59 419.28 153.5 420.75 152.8L421.17 152.61L421.28 152.57Z" fill="black"/>
<path d="M421.3 152.57L419.48 154.75L412.88 162.64L411.81 163.93L411.73 164L407.73 168.79L395.97 180.43L394.13 182.25L380.93 195.32L340.01 235.84L312.37 251.84L306.88 254.65C311.14 244.93 315.357 235.393 319.53 226.04C319.536 226.007 319.536 225.973 319.53 225.94C335.42 190.35 350.64 157.58 364.53 128.88C364.61 128.72 364.68 128.56 364.76 128.41C368.53 130.86 372.76 133.16 372.76 133.16C372.76 133.16 373.03 133.61 373.47 134.24C374.238 135.361 375.112 136.406 376.08 137.36C376.717 138.082 377.588 138.557 378.54 138.7C380.92 138.7 392.18 145.89 393.81 147.7C395.008 148.735 396.357 149.581 397.81 150.21C400.11 151.37 402.45 152.33 402.45 152.33L410.98 153.79C413.24 154.17 419.47 152.89 420.98 152.56C421.063 152.569 421.147 152.569 421.23 152.56H421.29L421.3 152.57Z" fill="#65617D"/>
<path opacity="0.1" d="M257.82 374.5L256.82 373.42L256.97 373.07C257.22 373.566 257.504 374.044 257.82 374.5Z" fill="black"/>
<path opacity="0.1" d="M255.78 386.22L247.46 396.86C248.9 393.24 250.357 389.593 251.83 385.92L255.78 386.22Z" fill="black"/>
<path d="M296.24 317.9L295.41 318.38L294.79 318.74L281.95 326.22L281.82 326.07L278.1 321.91L277.69 321.46L278.45 321.07L291.11 314.65L291.92 314.24L292.8 313.8C293.95 315.15 295.09 316.52 296.24 317.9Z" fill="#3F3D56"/>
<path opacity="0.1" d="M460.4 258.79C460.4 258.79 453.28 255.79 448.91 257.67C444.54 259.55 460.4 258.79 460.4 258.79Z" fill="black"/>
<path opacity="0.1" d="M440.01 307.31C440.01 307.31 437.81 323.31 431.47 323.49C425.13 323.67 440.01 307.31 440.01 307.31Z" fill="black"/>
<path opacity="0.1" d="M310.01 299.6C310.06 298.24 319.01 259.91 313.41 258.11L310.01 299.6Z" fill="black"/>
<path opacity="0.1" d="M437.49 125.36C432.891 129.614 429.414 134.938 427.37 140.86L427.6 141.04C429.6 142.46 432.53 141.47 435.07 141.63C436.628 141.73 438.116 142.315 439.324 143.304C440.533 144.292 441.402 145.633 441.81 147.14C442.148 148.735 442.033 150.392 441.48 151.926C440.928 153.459 439.958 154.808 438.68 155.82C443.26 153.23 446.99 149.26 451.56 146.65C456.13 144.04 462.37 143.13 465.77 146.65C467.23 148.17 468.3 150.53 470.5 150.58C471.82 150.58 473.06 149.73 474.38 149.44C480.91 148.16 486.05 157.93 486.87 163.1C487.68 168.1 487.73 175.1 489.57 180.79C493.211 177.37 496.143 173.267 498.198 168.715C500.253 164.162 501.391 159.249 501.548 154.257C501.704 149.264 500.876 144.29 499.11 139.617C497.344 134.945 494.675 130.666 491.255 127.025C487.835 123.384 483.732 120.452 479.18 118.397C474.627 116.342 469.714 115.204 464.721 115.047C459.729 114.891 454.754 115.719 450.082 117.485C445.41 119.251 441.131 121.92 437.49 125.34V125.36Z" fill="black"/>
<path d="M475.08 148.81C473.76 149.09 472.53 149.98 471.2 149.95C469.01 149.95 467.93 147.54 466.47 146.02C463.08 142.48 456.84 143.38 452.27 146.02C447.7 148.66 443.97 152.61 439.38 155.2C440.661 154.191 441.634 152.842 442.187 151.308C442.74 149.774 442.852 148.115 442.51 146.52C442.102 145.013 441.233 143.672 440.024 142.683C438.816 141.695 437.328 141.11 435.77 141.01C433.23 140.85 430.32 141.84 428.31 140.41C426.3 138.98 426.42 135.71 427.69 133.35C428.96 130.99 431.05 129.13 432.59 126.92C435.51 122.74 436.3 117.58 438.59 113.04C441.365 107.553 446.064 103.281 451.79 101.04C454.79 99.88 458.01 99.35 461.03 98.2C465.62 96.46 469.72 93.32 474.43 92.02C482.31 89.84 491 93.88 493.94 101.08C495.35 104.51 495.54 108.44 497.1 111.8C499.2 116.3 503.47 119.23 507.29 122.35C511.11 125.47 514.83 129.35 515.14 134.46C515.5 140.3 511.24 145.93 511.14 151.81C511.14 154.28 511.81 156.65 511.93 159.1C512.05 161.55 511.44 164.34 509.41 165.92C506.79 167.97 502.41 167.63 500.95 170.59C500.589 171.51 500.412 172.492 500.43 173.48C500.115 178.631 498.609 183.64 496.03 188.11C488.26 183.65 488.89 170.44 487.61 162.51C486.75 157.3 481.62 147.53 475.08 148.81Z" fill="#7C5C5C"/>
<path opacity="0.1" d="M430.1 277.81C430.1 277.81 403.36 302.57 402.84 307.3C402.32 312.03 430.1 277.81 430.1 277.81Z" fill="black"/>
<g opacity="0.1">
<path d="M502.88 168.08C504.28 165.19 508.52 165.44 511.15 163.54C510.766 164.457 510.158 165.262 509.38 165.88C507.46 167.38 504.59 167.61 502.62 168.78C502.683 168.539 502.77 168.304 502.88 168.08Z" fill="black"/>
<path d="M441.58 152.55C446.05 149.97 449.74 146.09 454.23 143.55C458.72 141.01 465.04 140.03 468.43 143.55C469.89 145.07 470.97 147.43 473.16 147.48C474.49 147.48 475.72 146.62 477.04 146.34C483.58 145.06 488.71 154.83 489.54 160C490.79 167.75 490.22 180.51 497.43 185.26C496.99 186.26 496.53 187.15 496 188.07C488.23 183.61 488.86 170.4 487.58 162.47C486.75 157.3 481.58 147.53 475.08 148.81C473.76 149.09 472.53 149.98 471.2 149.95C469.01 149.95 467.93 147.54 466.47 146.02C463.08 142.48 456.84 143.38 452.27 146.02C447.7 148.66 443.97 152.61 439.38 155.2C440.281 154.47 441.029 153.57 441.58 152.55Z" fill="black"/>
<path d="M429.65 130.85C428.38 133.21 428.22 136.46 430.27 137.91C432.32 139.36 435.19 138.35 437.73 138.51C439.289 138.611 440.777 139.196 441.987 140.184C443.197 141.172 444.069 142.513 444.48 144.02C444.799 145.538 444.708 147.114 444.216 148.585C443.724 150.056 442.848 151.369 441.68 152.39C442.674 150.593 442.969 148.492 442.51 146.49C442.102 144.983 441.233 143.642 440.024 142.654C438.816 141.665 437.328 141.08 435.77 140.98C433.23 140.82 430.32 141.81 428.31 140.38C426.3 138.95 426.42 135.68 427.69 133.32C428.477 131.969 429.405 130.705 430.46 129.55C430.166 129.968 429.895 130.402 429.65 130.85Z" fill="black"/>
<path d="M440.52 110.54C438.26 115.08 437.52 120.24 434.52 124.42C433.93 125.27 433.26 126.06 432.59 126.85C435.49 122.68 436.28 117.53 438.53 113.01C439.548 110.975 440.848 109.093 442.39 107.42C441.686 108.41 441.061 109.453 440.52 110.54Z" fill="black"/>
</g>
<path d="M512.81 358.76C513.025 358.76 513.2 358.585 513.2 358.37C513.2 358.155 513.025 357.98 512.81 357.98C512.595 357.98 512.42 358.155 512.42 358.37C512.42 358.585 512.595 358.76 512.81 358.76Z" fill="#E6E8EC"/>
<path d="M819.29 759.97C819.53 771.97 720.14 757.69 723.86 747.97L723.34 748.12C710.82 750.96 644.67 727.85 649.98 717.32C595.72 668.8 571.21 625.22 619.8 527.35C620.019 526.704 620.147 526.031 620.18 525.35C620.18 525.11 620.27 524.87 620.31 524.64C620.48 523.78 620.64 522.92 620.81 522.06C620.81 521.92 620.86 521.79 620.89 521.66C620.92 521.53 620.98 521.24 621.02 521.03C622.42 513.81 623.977 506.56 625.69 499.28C634.158 462.413 646.129 426.44 661.44 391.85C661.76 391.16 662.06 390.47 662.38 389.79C662.56 389.38 662.75 388.97 662.94 388.57L664.17 385.89C664.22 385.77 664.28 385.66 664.33 385.54C664.53 385.14 664.71 384.74 664.9 384.35C677.52 357.35 691.64 333.65 706.49 314.18C699.49 310.18 676.86 279.64 682.49 255.56C688.49 230 721.3 220.24 729.44 222.13C737.58 224.02 739.34 246.29 733.38 271.85C732.006 277.82 730.239 283.693 728.09 289.43C754.09 263.69 781.31 251.37 806.19 257.16C826.83 261.97 843.38 278.67 855.26 303.97C855.5 302.8 855.77 301.62 856.04 300.43C862.04 274.87 873.41 255.68 881.56 257.57C889.71 259.46 917.14 287.72 911.18 313.28C907.23 330.28 875.18 338.42 868.96 345.47C881.2 400.31 884.56 481.17 893.17 561.98C904.59 669.39 884.82 726.78 819.29 759.97Z" fill="#085D2D"/>
<path opacity="0.2" d="M805.73 404C801.21 423.38 775.15 434.15 745.66 429.84C743.1 429.467 740.523 428.98 737.93 428.38C735.797 427.88 733.713 427.317 731.68 426.69C702.57 417.76 683.31 396.22 687.9 376.54C691.34 361.74 707.38 351.95 727.9 350.08C732.361 349.694 736.845 349.664 741.31 349.99C746.155 350.352 750.963 351.098 755.69 352.22C788.23 359.75 810.63 382.95 805.73 404Z" fill="black"/>
<path d="M792.637 415.968C795.714 402.769 782.393 388.383 762.884 383.836C743.376 379.289 725.067 386.303 721.991 399.502C718.914 412.702 732.235 427.088 751.744 431.635C771.252 436.182 789.561 429.168 792.637 415.968Z" fill="#05391C"/>
<path d="M737.86 362.22C733.49 372.67 730.54 370.01 726.86 368.49C723.18 366.97 720.23 367.13 724.61 356.68C725.56 354.408 726.656 352.201 727.89 350.07C732.351 349.684 736.835 349.654 741.3 349.98C740.698 354.194 739.541 358.309 737.86 362.22Z" fill="white"/>
<path d="M745.66 429.84C743.1 429.467 740.523 428.98 737.93 428.38C735.797 427.88 733.713 427.317 731.68 426.69C734.03 415.94 737.77 415.08 741.56 415.86C745.35 416.64 747.83 418.91 745.66 429.84Z" fill="white"/>
<path opacity="0.2" d="M766.16 329.39C778.393 329.39 788.31 319.473 788.31 307.24C788.31 295.007 778.393 285.09 766.16 285.09C753.927 285.09 744.01 295.007 744.01 307.24C744.01 319.473 753.927 329.39 766.16 329.39Z" fill="black"/>
<path opacity="0.1" d="M719.039 269.394C721.171 260.245 718.893 251.894 713.95 250.742C709.007 249.59 703.271 256.073 701.138 265.222C699.006 274.371 701.284 282.722 706.227 283.874C711.17 285.026 716.906 278.544 719.039 269.394Z" fill="black"/>
<path opacity="0.12" d="M887.298 307.37C892.971 299.882 894.291 291.327 890.245 288.262C886.2 285.197 878.321 288.783 872.648 296.27C866.974 303.758 865.655 312.313 869.7 315.378C873.746 318.443 881.624 314.858 887.298 307.37Z" fill="black"/>
<path d="M767.01 296.35C766.608 296.256 766.201 296.186 765.79 296.14C766.331 297.363 766.457 298.729 766.15 300.03C765.875 301.214 765.258 302.291 764.376 303.127C763.494 303.964 762.386 304.524 761.19 304.736C759.993 304.949 758.76 304.806 757.644 304.325C756.527 303.844 755.577 303.046 754.91 302.03C754.529 302.79 754.237 303.592 754.04 304.42C753.558 306.499 753.702 308.675 754.455 310.672C755.208 312.669 756.536 314.398 758.271 315.641C760.006 316.884 762.07 317.585 764.204 317.656C766.337 317.726 768.443 317.163 770.256 316.037C772.07 314.912 773.509 313.274 774.392 311.331C775.276 309.388 775.563 307.227 775.219 305.12C774.875 303.014 773.914 301.056 772.459 299.496C771.003 297.935 769.117 296.84 767.04 296.35H767.01Z" fill="white"/>
<path opacity="0.2" d="M735.35 336.22C734.43 340.17 733.27 338.84 731.55 338.44C729.83 338.04 728.21 338.72 729.13 334.77C730.05 330.82 734.89 324.13 734.89 324.13C734.89 324.13 736.27 332.27 735.35 336.22Z" fill="black"/>
<path opacity="0.2" d="M777.7 274.81C776.78 278.81 775.62 277.43 773.9 277.03C772.18 276.63 770.56 277.31 771.48 273.36C772.4 269.41 777.24 262.72 777.24 262.72C777.24 262.72 778.62 270.85 777.7 274.81Z" fill="black"/>
<path opacity="0.2" d="M817.01 300.72C816.09 304.67 814.93 303.34 813.21 302.94C811.49 302.54 809.87 303.22 810.79 299.27C811.71 295.32 816.55 288.63 816.55 288.63C816.55 288.63 817.92 296.77 817.01 300.72Z" fill="black"/>
<path opacity="0.2" d="M827.87 337.09C826.95 341.04 825.8 339.71 824.08 339.31C822.36 338.91 820.74 339.59 821.66 335.64C822.58 331.69 827.41 325 827.41 325C827.41 325 828.8 333.13 827.87 337.09Z" fill="black"/>
<path opacity="0.2" d="M723.86 745.87L723.34 748.08C710.82 750.92 644.67 727.81 649.98 717.28L723.86 745.87Z" fill="black"/>
<path opacity="0.2" d="M723.86 747.93L723.34 748.08L723.86 745.87C742.86 740.32 819.29 759.97 819.29 759.97C819.53 771.93 720.14 757.69 723.86 747.93Z" fill="black"/>
<g opacity="0.1">
<path d="M734.01 412.01C728.95 434.76 707.92 464.62 676.71 490.29C659.604 504.291 640.64 515.854 620.36 524.65C620.55 523.65 620.75 522.65 620.94 521.65C622.38 514.23 623.98 506.77 625.74 499.27C634.208 462.403 646.179 426.43 661.49 391.84C661.81 391.15 662.11 390.46 662.43 389.78C662.61 389.37 662.8 388.96 662.99 388.56C683.83 378.76 702.89 374.82 716.24 377.88C720.772 378.791 724.965 380.933 728.36 384.07C728.949 384.632 729.503 385.23 730.02 385.86C732.985 389.633 734.729 394.22 735.02 399.01C735.351 403.369 735.01 407.754 734.01 412.01Z" fill="black"/>
</g>
<g opacity="0.1">
<path d="M732.35 409.41C727.29 432.16 706.26 462.02 675.04 487.69C658.598 501.152 640.439 512.367 621.04 521.04C622.44 513.82 623.997 506.57 625.71 499.29C634.178 462.423 646.149 426.45 661.46 391.86C661.78 391.17 662.08 390.48 662.4 389.8C662.58 389.39 662.77 388.98 662.96 388.58L664.19 385.9L664.92 384.36C684.36 375.76 702.02 372.42 714.59 375.3C719.124 376.212 723.317 378.358 726.71 381.5C727.299 382.059 727.853 382.653 728.37 383.28C731.356 387.05 733.121 391.641 733.43 396.44C733.736 400.793 733.371 405.167 732.35 409.41Z" fill="black"/>
</g>
<path d="M732.1 410.47C727.01 433.22 706.01 463.08 674.8 488.75C658.357 502.202 640.198 513.407 620.8 522.07C620.8 521.93 620.85 521.8 620.88 521.67C620.91 521.54 620.97 521.25 621.01 521.04C622.41 513.82 623.967 506.57 625.68 499.29C634.148 462.423 646.119 426.45 661.43 391.86C661.75 391.17 662.05 390.48 662.37 389.8C662.55 389.39 662.74 388.98 662.93 388.58L664.16 385.9C664.21 385.78 664.27 385.67 664.32 385.55C683.89 376.84 701.67 373.45 714.32 376.35C718.851 377.269 723.043 379.413 726.44 382.55C727.032 383.11 727.586 383.708 728.1 384.34C731.067 388.112 732.811 392.7 733.1 397.49C733.432 401.842 733.095 406.22 732.1 410.47Z" fill="#085D2D"/>
<path opacity="0.1" d="M817.053 635.712C830.702 577.149 795.998 519.006 739.537 505.847C683.077 492.687 626.242 529.494 612.593 588.057C598.943 646.62 633.648 704.763 690.108 717.922C746.568 731.082 803.403 694.275 817.053 635.712Z" fill="black"/>
<path d="M816.566 637.818C830.216 579.255 795.511 521.112 739.051 507.953C682.591 494.793 625.756 531.6 612.106 590.163C598.457 648.727 633.162 706.869 689.622 720.029C746.082 733.188 802.917 696.381 816.566 637.818Z" fill="#085D2D"/>
<path d="M723.01 584.89C722.806 585.764 722.433 586.589 721.91 587.319C721.388 588.048 720.727 588.668 719.965 589.142C718.426 590.099 716.57 590.406 714.805 589.995C713.04 589.584 711.511 588.489 710.553 586.95C709.596 585.411 709.289 583.555 709.7 581.79C710.56 578.11 713.1 580.68 716.77 581.53C720.44 582.38 723.84 581.22 723.01 584.89Z" fill="#064622"/>
<g opacity="0.1">
<path d="M796.01 258.13C816.64 262.94 833.2 279.64 845.08 304.93C845.32 303.77 845.58 302.59 845.86 301.4C846.58 298.3 847.39 295.3 848.25 292.4C837.02 273.45 822.54 260.97 805.16 256.92C797.07 255.09 788.678 255.049 780.57 256.8C785.754 256.51 790.952 256.957 796.01 258.13Z" fill="black"/>
<path d="M892.12 561.75C883.51 480.94 880.12 400.08 867.91 345.24C874.13 338.24 906.18 330.02 910.13 313.05C916.13 287.49 888.64 259.24 880.51 257.34C878.51 256.87 876.23 257.71 873.93 259.64C884.07 265.4 906.41 290.93 901.01 314.22C897.01 331.22 865.01 339.36 858.79 346.41C871.01 401.28 874.36 482.14 883.01 562.95C894.45 670.35 874.68 727.73 809.15 760.95C809.15 762.41 807.71 763.48 805.15 764.22C813.15 763.86 818.39 762.5 818.33 759.75C883.79 726.54 903.56 669.15 892.12 561.75Z" fill="black"/>
<path d="M719.23 223.1C727.37 224.99 729.13 247.25 723.18 272.82C721.801 278.79 720.031 284.663 717.88 290.4C722.013 286.32 726.167 282.583 730.34 279.19C731.05 276.74 731.72 274.19 732.34 271.63C738.34 246.06 736.53 223.8 728.4 221.9C726.26 221.4 722.4 221.72 717.79 222.9C718.275 222.924 718.757 222.991 719.23 223.1Z" fill="black"/>
</g>
<g opacity="0.1">
<path d="M875.68 586.32C852.13 596.97 804.83 550.68 780.35 496.59C763.7 459.77 758.03 423.69 763.55 401.05C764.514 396.793 766.126 392.708 768.33 388.94C770.727 384.772 774.337 381.433 778.68 379.37C779.421 379.032 780.182 378.741 780.96 378.5C785.393 377.188 790.101 377.119 794.57 378.3C817.35 383.7 846.1 414.84 865.62 458.01C890.09 512.09 899.23 575.66 875.68 586.32Z" fill="black"/>
<g opacity="0.1">
<path d="M789.01 419.53C786.37 421.95 777.01 416.04 768.01 406.31C766.39 404.55 764.9 402.78 763.55 401.05C764.514 396.793 766.126 392.708 768.33 388.94C771.634 391.549 774.718 394.425 777.55 397.54C786.49 407.22 791.6 417.1 789.01 419.53Z" fill="black"/>
<path d="M794.57 378.3C796.884 380.327 799.087 382.477 801.17 384.74C810.11 394.46 815.17 404.3 812.57 406.74C809.97 409.18 800.57 403.26 791.63 393.53C786.63 388.14 782.88 382.71 780.96 378.53L794.57 378.3Z" fill="black"/>
</g>
</g>
<g opacity="0.1">
<path d="M878.77 582.6C855.22 593.26 807.92 546.96 783.44 492.88C766.78 456.05 761.11 419.97 766.63 397.33C767.597 393.072 769.213 388.988 771.42 385.22C773.813 381.049 777.425 377.71 781.77 375.65C782.509 375.319 783.267 375.032 784.04 374.79C788.475 373.468 793.188 373.399 797.66 374.59C820.43 379.98 849.18 411.13 868.71 454.29C893.18 508.37 902.31 571.94 878.77 582.6Z" fill="black"/>
</g>
<path d="M877.22 584.46C853.68 595.12 806.37 548.82 781.9 494.73C765.24 457.91 759.57 421.83 765.09 399.19C766.057 394.932 767.673 390.848 769.88 387.08C772.27 382.91 775.878 379.571 780.22 377.51C780.963 377.176 781.724 376.886 782.5 376.64C786.933 375.328 791.641 375.259 796.11 376.44C818.89 381.84 847.64 412.99 867.17 456.15C891.63 510.22 900.77 573.8 877.22 584.46Z" fill="#085D2D"/>
<path opacity="0.8" d="M1041.33 613.93C1041.33 613.93 1046.97 621.3 1038.73 632.44C1030.49 643.58 1023.73 652.98 1026.43 659.93C1026.43 659.93 1038.87 639.24 1049 638.93C1059.13 638.62 1052.47 626.37 1041.33 613.93Z" fill="#085D2D"/>
<path opacity="0.1" d="M1041.33 613.93C1041.83 614.638 1042.21 615.417 1042.48 616.24C1052.36 627.85 1057.63 638.68 1048.13 638.95C1039.28 639.2 1028.67 655.02 1026.13 659.02C1026.22 659.32 1026.32 659.63 1026.43 659.93C1026.43 659.93 1038.87 639.24 1049 638.93C1059.13 638.62 1052.47 626.37 1041.33 613.93Z" fill="black"/>
<path d="M1051.82 623.33C1051.82 625.93 1051.53 628.03 1051.17 628.03C1050.81 628.03 1050.52 625.93 1050.52 623.33C1050.52 620.73 1050.88 621.96 1051.24 621.96C1051.6 621.96 1051.82 620.73 1051.82 623.33Z" fill="#F2BD1B"/>
<path d="M1055.42 626.43C1053.14 627.67 1051.15 628.43 1050.98 628.11C1050.81 627.79 1052.51 626.53 1054.79 625.29C1057.07 624.05 1056.18 624.95 1056.35 625.29C1056.52 625.63 1057.7 625.22 1055.42 626.43Z" fill="#F2BD1B"/>
<path opacity="0.8" d="M1011.53 613.93C1011.53 613.93 1005.89 621.3 1014.14 632.44C1022.39 643.58 1029.14 652.98 1026.43 659.93C1026.43 659.93 1013.99 639.24 1003.87 638.93C993.75 638.62 1000.4 626.37 1011.53 613.93Z" fill="#085D2D"/>
<path opacity="0.1" d="M1011.53 613.93C1011.04 614.641 1010.65 615.419 1010.38 616.24C1000.5 627.85 995.24 638.68 1004.74 638.95C1013.58 639.2 1024.19 655.02 1026.74 659.02C1026.66 659.329 1026.56 659.633 1026.44 659.93C1026.44 659.93 1014 639.24 1003.88 638.93C993.76 638.62 1000.4 626.37 1011.53 613.93Z" fill="black"/>
<path d="M1001.01 623.33C1001.01 625.93 1001.3 628.03 1001.66 628.03C1002.02 628.03 1002.31 625.93 1002.31 623.33C1002.31 620.73 1001.95 621.96 1001.59 621.96C1001.23 621.96 1001.01 620.73 1001.01 623.33Z" fill="#F2BD1B"/>
<path d="M997.45 626.43C999.73 627.67 1001.72 628.43 1001.89 628.11C1002.06 627.79 1000.35 626.53 998.07 625.29C995.79 624.05 996.69 624.95 996.52 625.29C996.35 625.63 995.17 625.22 997.45 626.43Z" fill="#F2BD1B"/>
<path d="M1026.44 716.36C1059.01 716.36 1085.42 712.308 1085.42 707.31C1085.42 702.312 1059.01 698.26 1026.44 698.26C993.866 698.26 967.46 702.312 967.46 707.31C967.46 712.308 993.866 716.36 1026.44 716.36Z" fill="#DBC9AF"/>
<path d="M1056.79 649.98L1056.51 652.29L1056.11 655.54L1055.95 656.9L1055.55 660.15L1055.38 661.51L1054.99 664.76L1050.47 701.76C1050.07 705.07 1044.67 707.64 1038.16 707.64H1014.71C1008.19 707.64 1002.8 705.07 1002.4 701.76L997.88 664.76L997.48 661.51L997.32 660.15L996.92 656.9L996.75 655.54L996.36 652.29L996.07 649.98C995.85 648.11 998.77 646.54 1002.45 646.54H1050.45C1054.1 646.54 1057.01 648.11 1056.79 649.98Z" fill="#65617D"/>
<path d="M1056.51 652.29L1056.12 655.54H996.76L996.36 652.29H1056.51Z" fill="#9D9CB5"/>
<path d="M1055.95 656.9L1055.56 660.15H997.32L996.92 656.9H1055.95Z" fill="#9D9CB5"/>
<path d="M1055.38 661.51L1054.99 664.76H997.88L997.49 661.51H1055.38Z" fill="#9D9CB5"/>
<path opacity="0.8" d="M349.01 682.97C349.01 682.97 356.91 693.3 345.36 708.9C333.81 724.5 324.29 737.67 328.14 747.4C328.14 747.4 345.57 718.4 359.75 718.02C373.93 717.64 364.56 700.39 349.01 682.97Z" fill="#085D2D"/>
<path opacity="0.1" d="M349.01 682.97C349.699 683.969 350.244 685.06 350.63 686.21C364.46 702.47 371.84 717.64 358.53 718.02C346.14 718.38 331.28 740.53 327.72 746.13C327.84 746.56 327.98 746.98 328.14 747.4C328.14 747.4 345.57 718.4 359.75 718.02C373.93 717.64 364.56 700.39 349.01 682.97Z" fill="black"/>
<path d="M363.65 696.14C363.65 699.78 363.24 702.72 362.74 702.72C362.24 702.72 361.83 699.78 361.83 696.14C361.83 692.5 362.34 694.22 362.83 694.22C363.32 694.22 363.65 692.5 363.65 696.14Z" fill="#F2BD1B"/>
<path d="M368.69 700.48C365.5 702.22 362.69 703.27 362.47 702.83C362.25 702.39 364.63 700.62 367.82 698.83C371.01 697.04 369.75 698.36 369.99 698.83C370.23 699.3 371.88 698.74 368.69 700.48Z" fill="#F2BD1B"/>
<path opacity="0.8" d="M307.23 682.97C307.23 682.97 299.32 693.3 310.87 708.9C322.42 724.5 331.94 737.67 328.09 747.4C328.09 747.4 310.67 718.4 296.49 718.02C282.31 717.64 291.63 700.39 307.23 682.97Z" fill="#085D2D"/>
<path opacity="0.1" d="M307.23 682.97C306.535 683.969 305.99 685.064 305.61 686.22C291.77 702.48 284.4 717.65 297.7 718.03C310.09 718.39 324.96 740.54 328.52 746.14C328.401 746.571 328.257 746.995 328.09 747.41C328.09 747.41 310.67 718.41 296.49 718.03C282.31 717.65 291.63 700.39 307.23 682.97Z" fill="black"/>
<path d="M292.54 696.14C292.54 699.78 292.94 702.72 293.45 702.72C293.96 702.72 294.36 699.78 294.36 696.14C294.36 692.5 293.85 694.22 293.36 694.22C292.87 694.22 292.54 692.5 292.54 696.14Z" fill="#F2BD1B"/>
<path d="M287.5 700.48C290.69 702.22 293.5 703.27 293.71 702.83C293.92 702.39 291.56 700.62 288.37 698.83C285.18 697.04 286.44 698.36 286.19 698.83C285.94 699.3 284.3 698.74 287.5 700.48Z" fill="#F2BD1B"/>
<path d="M328.1 826.45C373.724 826.45 410.71 820.773 410.71 813.77C410.71 806.767 373.724 801.09 328.1 801.09C282.476 801.09 245.49 806.767 245.49 813.77C245.49 820.773 282.476 826.45 328.1 826.45Z" fill="#DBC9AF"/>
<path d="M370.62 733.47L370.22 736.7L369.66 741.26L369.43 743.16L368.88 747.72L368.64 749.62L368.09 754.17L361.76 806C361.2 810.62 353.64 814.23 344.52 814.23H311.67C302.54 814.23 295 810.62 294.43 806L288.1 754.22L287.55 749.67L287.32 747.77L286.75 743.21L286.52 741.31L285.97 736.75L285.57 733.52C285.26 730.9 289.34 728.7 294.51 728.7H361.69C366.84 728.65 370.94 730.85 370.62 733.47Z" fill="#65617D"/>
<path d="M370.22 736.7L369.67 741.26H286.53L285.97 736.7H370.22Z" fill="#9D9CB5"/>
<path d="M369.44 743.16L368.88 747.72H287.32L286.76 743.16H369.44Z" fill="#9D9CB5"/>
<path d="M368.64 749.62L368.09 754.17H288.1L287.55 749.62H368.64Z" fill="#9D9CB5"/>
</g>
<defs>
<linearGradient id="paint0_linear_201_3" x1="268.964" y1="569.43" x2="511.86" y2="101.834" gradientUnits="userSpaceOnUse">
<stop stop-color="#808080" stop-opacity="0.25"/>
<stop offset="0.54" stop-color="#808080" stop-opacity="0.12"/>
<stop offset="1" stop-color="#808080" stop-opacity="0.1"/>
</linearGradient>
<clipPath id="clip0_201_3">
<rect width="1118.03" height="826.45" fill="white"/>
</clipPath>
</defs>
</svg>
