<svg width="940" height="749" viewBox="0 0 940 749" fill="none" xmlns="http://www.w3.org/2000/svg">
<g clip-path="url(#clip0_202_112)">
<path d="M792.2 717.136C795.902 717.367 797.946 712.77 795.144 710.092L794.865 708.985C794.902 708.897 794.939 708.808 794.976 708.72C797.183 703.455 803.263 700.963 808.541 703.144C825.228 710.04 807.61 725.886 808.934 736.608C809.398 740.309 823.902 740.512 823.082 744.144C830.794 727.29 834.85 708.887 834.843 690.382C834.842 685.732 834.586 681.083 834.063 676.445C833.634 672.652 833.042 668.882 832.277 665.146C828.139 644.953 819.187 625.722 806.28 609.662C800.076 606.275 803.86 600.976 800.733 594.628C799.61 592.338 789.593 592.287 789.175 589.777C789.624 589.836 796.099 583.114 793.96 579.791C792.553 577.604 792.991 574.819 794.799 572.95C794.976 572.767 795.143 572.573 795.297 572.365C800.637 565.123 807.999 566.385 811.846 576.223C820.057 580.361 820.138 587.229 815.103 593.836C811.9 598.04 811.462 603.726 808.651 608.227C808.941 608.597 809.242 608.955 809.531 609.325C814.839 616.124 819.429 623.432 823.3 631.111C822.204 622.576 823.814 612.293 826.563 605.664C829.715 598.057 835.646 591.657 840.84 585.077C847.044 577.218 859.671 580.785 860.768 590.735C860.779 590.831 860.789 590.926 860.799 591.022C860.031 591.455 859.278 591.916 858.543 592.402C854.353 595.174 855.805 601.668 860.771 602.431L860.884 602.449C860.607 605.213 850.793 613.921 850.099 616.616C856.737 642.239 851.77 645.621 831.348 646.05L830.276 647.576C832.211 653.138 833.769 658.833 834.938 664.601C836.04 669.956 836.805 675.368 837.235 680.804C837.77 687.663 837.726 694.556 837.15 701.403L837.184 701.16C838.651 693.619 842.745 686.574 848.692 681.691C857.55 674.413 870.067 671.73 879.624 665.879C884.224 663.062 890.122 666.698 889.321 672.03L889.282 672.286C887.859 672.864 886.47 673.536 885.128 674.288C884.359 674.722 883.606 675.183 882.87 675.67C878.68 678.443 880.133 684.937 885.101 685.698L885.213 685.715C885.294 685.726 885.364 685.738 885.445 685.75C883.005 691.545 859.761 699.72 855.504 704.359C851.365 726.739 853.399 726.073 834.344 719.563H834.333C832.253 728.631 829.213 737.492 825.304 745.936L793.019 745.947C792.903 745.589 792.799 745.219 792.695 744.86C795.68 745.044 798.689 744.87 801.628 744.325C799.232 741.388 796.835 738.428 794.439 735.491C794.381 735.434 794.335 735.376 794.288 735.318L794.252 735.273L790.928 724.337C791.19 721.911 791.619 719.504 792.2 717.136Z" fill="#CFB794"/>
<path d="M451.026 745.685L165.342 745.784C150.99 745.789 138.134 738.376 130.954 725.956C127.363 719.745 125.568 712.931 125.565 706.116C125.563 699.302 127.355 692.487 130.94 686.274L273.691 426.534C280.864 414.108 293.715 406.687 308.067 406.682C322.419 406.677 335.275 414.089 342.456 426.51L485.405 686.184C488.986 692.379 490.778 699.184 490.778 705.994C490.778 712.805 488.987 719.62 485.401 725.833C478.229 738.259 465.378 745.68 451.026 745.685ZM129.156 706.112C129.156 712.314 160.68 698.948 163.946 704.598C170.478 715.898 152.284 742.207 165.341 742.203C165.341 742.203 475.772 735.348 482.297 724.043C485.559 718.391 487.189 712.191 487.187 705.991C487.185 699.792 485.55 693.593 482.284 687.943L339.335 428.27C332.82 417.002 321.125 410.259 308.068 410.263C295.017 410.268 129.157 699.908 129.156 706.112Z" fill="#4E4230"/>
<path d="M454.198 742.103C450.618 749.267 618.334 747.065 620.317 747.064C620.317 747.064 667.457 746.024 668.448 744.307C668.943 743.449 669.191 742.507 669.191 741.566C669.19 740.624 668.942 739.683 668.446 738.825L646.738 699.392C645.749 697.681 643.973 696.657 641.991 696.658C641.908 696.658 641.786 696.731 641.629 696.872C612.671 722.736 576.983 739.835 538.152 740.412C496.86 741.026 454.426 741.647 454.198 742.103Z" fill="#4E4230"/>
<path d="M1.34104e-07 746.87C0.000412203 748.052 0.950338 749 2.13285 749L937.869 748.676C939.051 748.676 940 747.727 940 746.545C940 745.363 939.05 744.414 937.867 744.415L2.13138 744.738C0.948869 744.738 -0.000411934 745.688 1.34104e-07 746.87Z" fill="#CFB794"/>
<path d="M723.588 736.527L707.384 736.531L699.654 674.061L723.57 674.054L723.588 736.527Z" fill="#FBBEBE"/>
<path d="M668.069 736.178C667.565 737.028 667.3 739.769 667.3 740.757C667.301 743.793 669.764 746.253 672.802 746.252L722.986 746.235C725.058 746.234 726.737 744.555 726.736 742.484L726.736 740.395C726.736 740.395 729.216 734.118 724.102 726.384C724.102 726.384 717.752 732.443 708.256 722.959L705.456 717.892L685.199 732.71L673.968 734.096C671.511 734.399 669.332 734.05 668.069 736.178Z" fill="#4E4230"/>
<path d="M661.454 683.096L646.105 688.287L618.764 631.582L641.419 623.92L661.454 683.096Z" fill="#FBBEBE"/>
<path d="M608.748 700.538C608.543 701.504 609.17 704.186 609.487 705.122C610.461 707.998 613.582 709.54 616.46 708.566L663.994 692.486C665.957 691.822 667.01 689.693 666.345 687.731L665.675 685.753C665.675 685.753 666.014 679.013 658.691 673.323C658.691 673.323 654.617 681.096 642.583 675.151L638.306 671.247L623.864 691.769L613.669 696.677C611.439 697.751 609.263 698.118 608.748 700.538Z" fill="#4E4230"/>
<path d="M636.424 320.697L604.993 424.739L567.888 518.323L626.632 651.97L648.413 642.285L622.35 519.514L677.008 436.206L702.513 696.273L724.297 695.056L753.84 381.14L758.052 312.793L636.424 320.697Z" fill="#887455"/>
<path d="M731.35 90.2249L685.363 98.7084L681.739 119.274L653.907 132.59L639.437 283.802C639.437 283.802 615.242 315.261 634.61 324.932L758.052 312.793C758.052 312.793 764.096 290.426 758.044 288.304C751.992 286.182 751.974 232.757 751.974 232.757L779.772 122.869L738.618 108.367L731.35 90.2249Z" fill="#4E4230"/>
<path d="M704.225 89.828C724.735 89.828 741.361 73.2102 741.361 52.711C741.361 32.2118 724.735 15.594 704.225 15.594C683.716 15.594 667.089 32.2118 667.089 52.711C667.089 73.2102 683.716 89.828 704.225 89.828Z" fill="#FBBEBE"/>
<path d="M728.817 58.2199C725.853 59.8414 728.665 67.5829 726.813 68.2522C724.672 69.0258 716.867 60.1454 716.77 50.1987C716.741 47.1883 717.434 45.7428 716.767 42.1735C715.895 37.5045 713.219 31.9977 710.742 32.1439C709.273 32.2306 707.839 34.3057 707.732 36.1576C707.582 38.7531 710.105 39.7746 709.741 41.1727C709.049 43.8357 698.457 45.6742 694.686 41.1779C691.73 37.6529 693.997 31.4639 692.675 31.147C691.701 30.9134 690.655 34.3209 686.656 38.1712C685.149 39.6219 682.908 41.7793 681.639 41.1824C679.804 40.3199 681.137 34.2412 680.632 34.1606C680.215 34.0939 679.953 38.3665 677.624 42.187C674.633 47.0954 668.462 50.8786 665.583 49.2133C663.818 48.193 663.679 45.3524 663.573 43.195C663.35 38.6499 656.742 28.1953 658.451 23.3331C661.931 13.4372 667.893 20.4129 670.59 17.1104C674.24 12.6395 677.516 15.0433 683.635 10.0837C689.613 5.23871 689.665 0.369068 693.668 0.0486034C697.273 -0.239987 698.555 3.60365 702.702 3.05496C706.215 2.59015 706.98 -0.390997 709.727 0.0430343C712.242 0.440392 712.408 3.06662 715.75 4.0536C717.884 4.68372 718.353 3.77169 720.769 4.05187C725.795 4.63485 729.171 9.21058 729.804 10.0677C732.242 13.372 731.296 14.7655 733.821 18.0916C735.999 20.96 740.825 19.7419 742.639 21.1745C748.568 25.8556 751.116 34.4884 751.167 44.3277C751.203 51.2095 750.305 54.6866 748.302 63.373C746.781 69.9688 739.735 78.4925 735.851 82.2934C734.808 83.3136 731.885 86.1738 729.83 85.3049C727.882 84.4816 727.823 80.7787 727.821 80.2898C727.812 78.6083 728.26 76.5277 731.832 71.26C735.584 65.7266 737.075 65.0951 736.848 63.2329C736.446 59.9413 731.179 56.9274 728.817 58.2199Z" fill="#2F2E41"/>
<path d="M599.281 404.269C598.125 413.944 602.182 422.382 608.341 423.118C614.501 423.853 620.431 416.606 621.587 406.931C622.093 402.697 621.6 398.699 620.369 395.48L624.752 354.425L605.433 352.779L603.163 393.426C601.208 396.265 599.787 400.034 599.281 404.269Z" fill="#FBBEBE"/>
<path d="M654.814 131.613C654.814 131.613 644.805 131.755 638.178 144.692C634.657 151.566 615.815 280.119 615.815 280.119L598.459 385.427L628.024 385.576L651.063 285.846L670.443 228.005L654.814 131.613Z" fill="#4E4230"/>
<path d="M738.014 388.816C735.183 398.14 737.7 407.157 743.636 408.958C749.572 410.759 756.679 404.661 759.51 395.337C760.749 391.256 760.964 387.234 760.315 383.849L771.816 344.193L753.082 339.196L743.733 378.819C741.312 381.272 739.253 384.735 738.014 388.816Z" fill="#FBBEBE"/>
<path d="M758.592 124.691C758.592 124.691 773.112 113.799 785.22 130.73C797.329 147.661 802.218 286.77 802.218 286.77L768.36 372.667L742.942 364.208L767.111 258.96L724.724 179.137L758.592 124.691Z" fill="#4E4230"/>
<path d="M391.429 688.403C463.66 688.403 522.216 629.877 522.216 557.682C522.216 485.486 463.66 426.96 391.429 426.96C319.197 426.96 260.642 485.486 260.642 557.682C260.642 629.877 319.197 688.403 391.429 688.403Z" fill="#085D2D"/>
<path d="M391.452 637.816C398.084 637.816 403.461 632.442 403.461 625.813C403.461 619.185 398.084 613.811 391.452 613.811C384.82 613.811 379.444 619.185 379.444 625.813C379.444 632.442 384.82 637.816 391.452 637.816Z" fill="#E7DBC9"/>
<path d="M391.401 477.548C390.298 484.874 392.274 486.407 392.285 517.991C392.296 549.575 398.853 591.922 391.44 591.924C384.028 591.927 381.317 504.533 355.578 496.798C325.316 487.704 394.972 453.832 391.401 477.548Z" fill="#E7DBC9"/>
<path d="M215.894 624.423L204.077 649.377C218.362 639.138 240.675 630.313 258.43 625.586C241.887 617.599 221.643 604.721 209.549 591.971L216.345 618.338C136.666 602.117 79.4467 541.021 79.4225 471.036L76.5443 470.046C76.5696 543.148 132.997 607.861 215.894 624.423Z" fill="#4E4230"/>
</g>
<defs>
<clipPath id="clip0_202_112">
<rect width="940" height="749" fill="white"/>
</clipPath>
</defs>
</svg>
